PathFileType	4	(X/Y/Z)	C:\Users\WrightLab\Desktop\Jo\P3_4.trc
DataRate	CameraRate	NumFrames	NumMarkers	Units	OrigDataRate	OrigDataStartFrame	OrigNumFrames
100.00	100.00	       17	19	mm	100.00	560	       639
Frame#	Time	Headset_Front			Headset_Back			Headset_Left			Headset_Right			Left_Shoulder			Right_Shoulder			Sternum			C7			Left Elbow			Right Elbow			Left Wrist			Right Wrist			Left ASIS			Right ASIS			S2			Left Knee			Right Knee			Left Ankle			Right Ankle			
		X1	Y1	Z1	X2	Y2	Z2	X3	Y3	Z3	X4	Y4	Z4	X5	Y5	Z5	X6	Y6	Z6	X7	Y7	Z7	X8	Y8	Z8	X9	Y9	Z9	X10	Y10	Z10	X11	Y11	Z11	X12	Y12	Z12	X13	Y13	Z13	X14	Y14	Z14	X15	Y15	Z15	X16	Y16	Z16	X17	Y17	Z17	X18	Y18	Z18	X19	Y19	Z19	

560	5.590																-149.86954	1453.07336	2365.72339										-308.27390	908.54919	2411.88867	-446.62067	938.85748	2622.98462	-268.44135	894.24005	2100.16943										-255.15134	495.31351	2444.01099	-100.06522	482.55035	2244.81421	-190.42447	167.68562	2432.30908	67.17423	232.11807	2406.24463	
561	5.600																-150.88727	1452.48999	2369.01270										-309.73050	908.21808	2410.37109	-449.30048	936.56158	2620.24561	-264.33670	894.19641	2101.13428										-258.45786	494.55051	2442.38062	-94.25250	484.14380	2247.29980	-190.93971	167.20355	2431.40356	63.78651	231.82678	2422.33105	
562	5.610																-151.81761	1452.22412	2372.23462										-310.59372	907.82843	2410.05322	-451.77512	933.97675	2617.48706	-259.21240	894.04364	2105.73047										-261.05801	494.32965	2441.91968	-88.36860	483.28030	2257.69849	-191.55815	166.66837	2430.63232	59.57116	231.55795	2435.69409	
563	5.620																-153.32626	1452.73157	2376.15918										-311.95810	907.78168	2408.16138	-453.34277	931.35541	2613.47168	-254.67247	895.20514	2106.65698										-263.84869	493.92035	2441.11914	-83.59193	484.09671	2261.65771	-192.54926	166.65506	2430.88599	55.20010	231.17455	2449.05029	
564	5.630																-154.27455	1452.37122	2379.46802										-313.39615	907.49811	2406.89014	-455.56210	928.79559	2608.69043	-248.47543	893.00818	2110.74292										-266.54941	493.90973	2440.28735	-79.33970	484.61383	2267.19653	-193.02574	166.43903	2430.72510	50.94401	231.40794	2459.76855	
565	5.640																-155.33612	1452.12354	2381.95093										-314.52304	907.20667	2405.95776	-457.40405	925.68311	2603.80225	-243.10968	892.03418	2112.20776										-268.08841	492.87714	2439.18237	-75.29002	482.46777	2279.66528	-193.82837	166.76395	2431.35400	47.52290	230.02361	2470.97168	
566	5.650																-156.51665	1452.21680	2385.27197										-315.50302	906.88263	2404.13477	-458.25116	923.03162	2599.05762	-237.52632	891.07214	2115.93848										-270.03015	493.47220	2439.02515	-72.61354	483.95111	2283.52075	-194.18636	166.78969	2431.48682	43.13959	229.68158	2481.58862	
567	5.660																-157.20348	1451.67651	2387.87671										-316.55551	906.49762	2403.35327	-458.95349	919.74390	2593.47046	-231.51114	890.18341	2120.73486										-271.89032	492.49991	2437.13086	-70.28629	482.88739	2290.07837	-194.49344	166.88313	2431.39966	39.10355	228.46019	2490.68896	
568	5.670																-158.24608	1452.00000	2391.28906										-317.18524	906.27234	2401.80054	-460.15976	916.85815	2588.20972	-225.89796	889.96100	2122.78296										-272.95840	493.12051	2437.23560	-68.05993	482.23477	2299.75000	-194.70120	167.02078	2431.26855	34.21215	226.92467	2498.02979	
569	5.680																-158.95239	1451.65503	2394.53247										-315.78635	906.04791	2395.99146	-460.70831	913.71613	2581.78223	-219.94783	889.68536	2125.56421										-274.82446	493.27966	2436.75366	-66.57413	483.09027	2302.70410	-194.72838	166.95355	2431.20728	29.87278	225.35555	2505.85352	
570	5.690																-159.59178	1451.71265	2396.94116										-315.92297	905.89160	2393.31128	-460.92911	910.89551	2575.02588	-212.90175	887.81195	2130.28320										-275.78281	491.71420	2434.53345	-65.16020	482.91409	2308.34253	-194.96735	167.22961	2431.36572	25.81757	222.90004	2512.22803	
571	5.700																-160.51802	1451.50476	2400.21704										-316.06100	905.85944	2390.12598	-460.74655	907.90253	2568.36841	-206.68062	887.56262	2131.86523										-276.61325	492.41092	2434.23804	-64.06010	483.11966	2314.67651	-195.27487	167.22887	2431.55518	21.53986	221.50851	2519.72412	
572	5.710																-160.81285	1451.74133	2402.98853										-315.87091	905.92010	2387.37085	-460.36383	905.16174	2561.83154	-200.07104	885.98193	2135.12964										-277.99081	492.17935	2434.33374	-62.14858	482.04633	2321.91919	-195.62192	167.28796	2431.56055	17.25109	218.38777	2523.82568	
573	5.720																-161.03186	1451.60376	2405.91260										-315.42389	906.03278	2384.10791	-460.03214	902.39569	2555.11816	-193.22339	883.86603	2139.00830										-280.15359	492.07703	2433.67627	-60.98095	482.42810	2328.16431	-195.92168	167.23940	2431.73877	13.30318	214.49744	2528.06787	
574	5.730																-161.35490	1451.66760	2408.65405										-314.56638	906.27972	2380.81689	-459.19574	899.79846	2547.80762	-186.99878	883.50305	2139.82813										-280.84924	491.56970	2432.64307	-59.60349	482.37448	2333.89111	-196.31342	167.22066	2431.77710	8.17795	211.60350	2529.18066	
575	5.740																-161.54237	1451.76917	2411.43677													-458.28708	897.43262	2539.69775	-179.24089	882.03461	2145.69775										-282.59781	492.01639	2432.21655	-58.66769	482.76794	2337.73608	-196.74446	166.76875	2431.60645	4.27332	208.13101	2534.74072	
576	5.750																															-457.87238	895.08508	2532.66040	-172.29079	879.18927	2151.75000										-284.65683	491.34821	2430.18555	-57.08780	481.51260	2345.54150	-197.48933	166.76929	2431.48486	2.01775	206.33633	2538.64063	
